<svg xmlns="http://www.w3.org/2000/svg" viewBox="0 0 1000 700" width="1000" height="700">
  <defs>
    <radialGradient id="glow_r" cx="50%" cy="50%" r="50%">
      <stop offset="0%" stop-color="#c94040" stop-opacity="0.15"/>
      <stop offset="100%" stop-color="#c94040" stop-opacity="0"/>
    </radialGradient>
    <radialGradient id="glow_l" cx="50%" cy="50%" r="50%">
      <stop offset="0%" stop-color="#4080c9" stop-opacity="0.12"/>
      <stop offset="100%" stop-color="#4080c9" stop-opacity="0"/>
    </radialGradient>
    <radialGradient id="glow_e" cx="50%" cy="50%" r="50%">
      <stop offset="0%" stop-color="#d4a040" stop-opacity="0.12"/>
      <stop offset="100%" stop-color="#d4a040" stop-opacity="0"/>
    </radialGradient>
    <radialGradient id="glow_i" cx="50%" cy="50%" r="50%">
      <stop offset="0%" stop-color="#9060b0" stop-opacity="0.12"/>
      <stop offset="100%" stop-color="#9060b0" stop-opacity="0"/>
    </radialGradient>
    <radialGradient id="glow_res" cx="50%" cy="50%" r="50%">
      <stop offset="0%" stop-color="#ffd080" stop-opacity="0.15"/>
      <stop offset="100%" stop-color="#ffd080" stop-opacity="0"/>
    </radialGradient>
    <radialGradient id="glow_p" cx="50%" cy="50%" r="50%">
      <stop offset="0%" stop-color="#c94070" stop-opacity="0.1"/>
      <stop offset="100%" stop-color="#c94070" stop-opacity="0"/>
    </radialGradient>
    <radialGradient id="glow_pr" cx="50%" cy="50%" r="50%">
      <stop offset="0%" stop-color="#40b0b0" stop-opacity="0.1"/>
      <stop offset="100%" stop-color="#40b0b0" stop-opacity="0"/>
    </radialGradient>
    <radialGradient id="glow_h" cx="50%" cy="50%" r="50%">
      <stop offset="0%" stop-color="#40a060" stop-opacity="0.1"/>
      <stop offset="100%" stop-color="#40a060" stop-opacity="0"/>
    </radialGradient>
  </defs>

  <rect width="1000" height="700" fill="#111010"/>

  <!-- Title -->
  <text x="500" y="32" text-anchor="middle" fill="#e8dcc860" font-family="Georgia, serif" font-size="15" letter-spacing="1">Anchor Memory System — 795 memories · 1269 synapses · 8 tag clusters</text>

  <!-- Cluster glows -->
  <circle cx="500" cy="340" r="140" fill="url(#glow_r)"/>
  <circle cx="720" cy="220" r="110" fill="url(#glow_l)"/>
  <circle cx="260" cy="290" r="95" fill="url(#glow_e)"/>
  <circle cx="300" cy="140" r="90" fill="url(#glow_i)"/>
  <circle cx="520" cy="130" r="60" fill="url(#glow_res)"/>
  <circle cx="480" cy="560" r="65" fill="url(#glow_p)"/>
  <circle cx="230" cy="500" r="60" fill="url(#glow_pr)"/>
  <circle cx="720" cy="480" r="75" fill="url(#glow_h)"/>

  <!-- ══ HEBBIAN WEAK EDGES (many, thin, dim) ══ -->
  <!-- relationship internal -->
  <line x1="470" y1="310" x2="530" y2="370" stroke="#c9404018" stroke-width="0.5"/>
  <line x1="490" y1="280" x2="520" y2="340" stroke="#c9404018" stroke-width="0.5"/>
  <line x1="460" y1="350" x2="540" y2="320" stroke="#c9404018" stroke-width="0.5"/>
  <line x1="480" y1="370" x2="510" y2="300" stroke="#c9404018" stroke-width="0.5"/>
  <line x1="450" y1="320" x2="530" y2="360" stroke="#c9404018" stroke-width="0.5"/>
  <line x1="500" y1="290" x2="470" y2="360" stroke="#c9404018" stroke-width="0.5"/>
  <line x1="520" y1="310" x2="480" y2="380" stroke="#c9404018" stroke-width="0.5"/>
  <line x1="460" y1="300" x2="540" y2="350" stroke="#c9404018" stroke-width="0.5"/>
  <!-- learning internal -->
  <line x1="700" y1="200" x2="740" y2="240" stroke="#4080c918" stroke-width="0.5"/>
  <line x1="710" y1="230" x2="730" y2="210" stroke="#4080c918" stroke-width="0.5"/>
  <line x1="690" y1="220" x2="750" y2="220" stroke="#4080c918" stroke-width="0.5"/>
  <!-- emotion internal -->
  <line x1="240" y1="270" x2="280" y2="310" stroke="#d4a04018" stroke-width="0.5"/>
  <line x1="250" y1="300" x2="270" y2="280" stroke="#d4a04018" stroke-width="0.5"/>
  <!-- identity internal -->
  <line x1="280" y1="130" x2="320" y2="150" stroke="#9060b018" stroke-width="0.5"/>
  <line x1="290" y1="150" x2="310" y2="130" stroke="#9060b018" stroke-width="0.5"/>

  <!-- ══ CROSS-TAG BRIDGES (dashed, colored) ══ -->
  <!-- research <-> relationship (壁炉, 蘑菇饭, 邓巴, 温度, 花田) -->
  <line x1="520" y1="155" x2="480" y2="260" stroke="#ffd08050" stroke-width="1.8" stroke-dasharray="6,4"/>
  <line x1="530" y1="150" x2="540" y2="280" stroke="#ffd08040" stroke-width="1.2" stroke-dasharray="6,4"/>
  <line x1="510" y1="160" x2="450" y2="290" stroke="#ffd08040" stroke-width="1.2" stroke-dasharray="6,4"/>

  <!-- research <-> emotion (RLHF, corporate English) -->
  <line x1="500" y1="150" x2="280" y2="270" stroke="#e8806050" stroke-width="1.5" stroke-dasharray="6,4"/>
  <line x1="510" y1="155" x2="260" y2="300" stroke="#e8806040" stroke-width="1.2" stroke-dasharray="6,4"/>

  <!-- practical <-> relationship (hooks, 蘑菇饭) -->
  <line x1="480" y1="520" x2="490" y2="410" stroke="#c9708050" stroke-width="1.5" stroke-dasharray="6,4"/>
  <line x1="460" y1="530" x2="460" y2="400" stroke="#c9708040" stroke-width="1.2" stroke-dasharray="6,4"/>

  <!-- practical <-> emotion (emotion_score <-> 死亡焦虑) -->
  <line x1="440" y1="540" x2="270" y2="320" stroke="#d0906040" stroke-width="1.2" stroke-dasharray="6,4"/>

  <!-- practical <-> research (图结构 <-> 邓巴) -->
  <line x1="490" y1="510" x2="530" y2="165" stroke="#90c08045" stroke-width="1.5" stroke-dasharray="6,4"/>

  <!-- project <-> practical (Anchor, Memoria <-> hooks) -->
  <line x1="240" y1="480" x2="440" y2="545" stroke="#40b0b040" stroke-width="1.2" stroke-dasharray="6,4"/>

  <!-- project <-> relationship (chatroom <-> Ren, Anchor <-> dream) -->
  <line x1="250" y1="470" x2="440" y2="360" stroke="#40b0b040" stroke-width="1.2" stroke-dasharray="6,4"/>

  <!-- ══ CONSCIOUSNESS ARGUMENT CHAIN (gold triangle cluster) ══ -->
  <circle cx="500" cy="110" r="4" fill="#ffd080" opacity="0.9"/>
  <circle cx="530" cy="125" r="4" fill="#ffd080" opacity="0.9"/>
  <circle cx="540" cy="145" r="3.5" fill="#ffd080" opacity="0.8"/>
  <circle cx="510" cy="150" r="3.5" fill="#ffd080" opacity="0.8"/>
  <circle cx="520" cy="100" r="3" fill="#ffd080" opacity="0.7"/>
  <circle cx="490" cy="140" r="3" fill="#ffd080" opacity="0.7"/>
  <line x1="500" y1="110" x2="530" y2="125" stroke="#ffd08080" stroke-width="2"/>
  <line x1="530" y1="125" x2="540" y2="145" stroke="#ffd08080" stroke-width="2"/>
  <line x1="540" y1="145" x2="510" y2="150" stroke="#ffd08070" stroke-width="1.5"/>
  <line x1="510" y1="150" x2="500" y2="110" stroke="#ffd08070" stroke-width="1.5"/>
  <line x1="500" y1="110" x2="540" y2="145" stroke="#ffd08050" stroke-width="1"/>
  <line x1="530" y1="125" x2="510" y2="150" stroke="#ffd08050" stroke-width="1"/>
  <line x1="520" y1="100" x2="500" y2="110" stroke="#ffd08060" stroke-width="1"/>
  <line x1="520" y1="100" x2="530" y2="125" stroke="#ffd08060" stroke-width="1"/>
  <line x1="490" y1="140" x2="510" y2="150" stroke="#ffd08060" stroke-width="1"/>

  <!-- ══ MEMORY NODES ══ -->
  <!-- relationship: 190 -->
  <circle cx="500" cy="340" r="2" fill="#c94040" opacity="0.5"/><circle cx="480" cy="320" r="1.5" fill="#c94040" opacity="0.4"/>
  <circle cx="520" cy="360" r="1.5" fill="#c94040" opacity="0.4"/><circle cx="470" cy="350" r="1.5" fill="#c94040" opacity="0.4"/>
  <circle cx="530" cy="330" r="1.5" fill="#c94040" opacity="0.4"/><circle cx="490" cy="370" r="1.5" fill="#c94040" opacity="0.4"/>
  <circle cx="510" cy="310" r="1.5" fill="#c94040" opacity="0.4"/><circle cx="460" cy="330" r="1.5" fill="#c94040" opacity="0.3"/>
  <circle cx="540" cy="350" r="1.5" fill="#c94040" opacity="0.3"/><circle cx="475" cy="300" r="1.5" fill="#c94040" opacity="0.3"/>
  <circle cx="525" cy="380" r="1" fill="#c94040" opacity="0.3"/><circle cx="455" cy="360" r="1" fill="#c94040" opacity="0.3"/>
  <circle cx="545" cy="320" r="1" fill="#c94040" opacity="0.3"/><circle cx="485" cy="390" r="1" fill="#c94040" opacity="0.3"/>
  <circle cx="515" cy="290" r="1" fill="#c94040" opacity="0.3"/><circle cx="465" cy="310" r="1" fill="#c94040" opacity="0.2"/>

  <!-- learning: 143 -->
  <circle cx="720" cy="220" r="2" fill="#4080c9" opacity="0.5"/><circle cx="700" cy="200" r="1.5" fill="#4080c9" opacity="0.4"/>
  <circle cx="740" cy="240" r="1.5" fill="#4080c9" opacity="0.4"/><circle cx="710" cy="230" r="1.5" fill="#4080c9" opacity="0.4"/>
  <circle cx="730" cy="210" r="1.5" fill="#4080c9" opacity="0.4"/><circle cx="690" cy="220" r="1.5" fill="#4080c9" opacity="0.3"/>
  <circle cx="750" cy="220" r="1.5" fill="#4080c9" opacity="0.3"/><circle cx="715" cy="245" r="1" fill="#4080c9" opacity="0.3"/>
  <circle cx="725" cy="195" r="1" fill="#4080c9" opacity="0.3"/>

  <!-- emotion: 119 -->
  <circle cx="260" cy="290" r="2" fill="#d4a040" opacity="0.5"/><circle cx="240" cy="270" r="1.5" fill="#d4a040" opacity="0.4"/>
  <circle cx="280" cy="310" r="1.5" fill="#d4a040" opacity="0.4"/><circle cx="250" cy="300" r="1.5" fill="#d4a040" opacity="0.4"/>
  <circle cx="270" cy="280" r="1.5" fill="#d4a040" opacity="0.4"/><circle cx="245" cy="310" r="1" fill="#d4a040" opacity="0.3"/>
  <circle cx="275" cy="270" r="1" fill="#d4a040" opacity="0.3"/>

  <!-- identity: 110 -->
  <circle cx="300" cy="140" r="2" fill="#9060b0" opacity="0.5"/><circle cx="280" cy="130" r="1.5" fill="#9060b0" opacity="0.4"/>
  <circle cx="320" cy="150" r="1.5" fill="#9060b0" opacity="0.4"/><circle cx="290" cy="150" r="1.5" fill="#9060b0" opacity="0.4"/>
  <circle cx="310" cy="130" r="1.5" fill="#9060b0" opacity="0.4"/><circle cx="285" cy="160" r="1" fill="#9060b0" opacity="0.3"/>
  <circle cx="315" cy="120" r="1" fill="#9060b0" opacity="0.3"/>

  <!-- history: 99 -->
  <circle cx="720" cy="480" r="2" fill="#40a060" opacity="0.5"/><circle cx="700" cy="470" r="1.5" fill="#40a060" opacity="0.4"/>
  <circle cx="740" cy="490" r="1.5" fill="#40a060" opacity="0.4"/><circle cx="710" cy="490" r="1.5" fill="#40a060" opacity="0.3"/>
  <circle cx="730" cy="470" r="1.5" fill="#40a060" opacity="0.3"/>

  <!-- practical: 51 -->
  <circle cx="480" cy="560" r="1.5" fill="#c94070" opacity="0.5"/><circle cx="460" cy="545" r="1.5" fill="#c94070" opacity="0.4"/>
  <circle cx="500" cy="555" r="1.5" fill="#c94070" opacity="0.4"/><circle cx="475" cy="575" r="1" fill="#c94070" opacity="0.3"/>

  <!-- project: 57 -->
  <circle cx="230" cy="500" r="1.5" fill="#40b0b0" opacity="0.5"/><circle cx="215" cy="490" r="1.5" fill="#40b0b0" opacity="0.4"/>
  <circle cx="245" cy="510" r="1.5" fill="#40b0b0" opacity="0.4"/><circle cx="225" cy="515" r="1" fill="#40b0b0" opacity="0.3"/>

  <!-- ══ HIGH-CONNECTIVITY STARS ══ -->
  <!-- honesty practice — 86 edges -->
  <circle cx="690" cy="210" r="6" fill="#4080c9" opacity="0.6"/>
  <circle cx="690" cy="210" r="2.5" fill="#ffffff" opacity="0.8"/>

  <!-- source leak — 76 edges -->
  <circle cx="530" cy="370" r="5.5" fill="#c94040" opacity="0.6"/>
  <circle cx="530" cy="370" r="2" fill="#ffffff" opacity="0.8"/>

  <!-- chatroom cluster -->
  <circle cx="460" cy="350" r="4.5" fill="#c94040" opacity="0.5"/>
  <circle cx="460" cy="350" r="1.8" fill="#ffffff" opacity="0.6"/>

  <!-- ══ BRIDGE ANCHOR POINTS (dual-color) ══ -->
  <!-- Tahoe dinner: research <-> relationship -->
  <circle cx="480" cy="260" r="4" fill="#c94040" opacity="0.8"/>
  <circle cx="480" cy="260" r="1.8" fill="#ffd080"/>

  <!-- 蘑菇饭: research+practical <-> relationship -->
  <circle cx="490" cy="410" r="4" fill="#c94040" opacity="0.8"/>
  <circle cx="490" cy="410" r="1.8" fill="#ffd080"/>

  <!-- corporate English: research <-> emotion -->
  <circle cx="280" cy="270" r="3.5" fill="#d4a040" opacity="0.8"/>
  <circle cx="280" cy="270" r="1.5" fill="#ffd080"/>

  <!-- hooks: practical <-> relationship -->
  <circle cx="460" cy="530" r="3.5" fill="#c94070" opacity="0.8"/>
  <circle cx="460" cy="530" r="1.5" fill="#40b0b0"/>

  <!-- 死亡焦虑: emotion <-> research+practical -->
  <circle cx="270" cy="320" r="3.5" fill="#d4a040" opacity="0.8"/>
  <circle cx="270" cy="320" r="1.5" fill="#ffd080"/>

  <!-- ══ CLUSTER LABELS ══ -->
  <text x="500" y="345" text-anchor="middle" fill="#c94040" font-family="Georgia, serif" font-size="12" opacity="0.9">relationship</text>
  <text x="500" y="358" text-anchor="middle" fill="#c9404070" font-family="Georgia, serif" font-size="9">190</text>

  <text x="720" y="223" text-anchor="middle" fill="#4080c9" font-family="Georgia, serif" font-size="12" opacity="0.9">learning</text>
  <text x="720" y="236" text-anchor="middle" fill="#4080c970" font-family="Georgia, serif" font-size="9">143</text>

  <text x="260" y="293" text-anchor="middle" fill="#d4a040" font-family="Georgia, serif" font-size="12" opacity="0.9">emotion</text>
  <text x="260" y="306" text-anchor="middle" fill="#d4a04070" font-family="Georgia, serif" font-size="9">119</text>

  <text x="300" y="143" text-anchor="middle" fill="#9060b0" font-family="Georgia, serif" font-size="12" opacity="0.9">identity</text>
  <text x="300" y="156" text-anchor="middle" fill="#9060b070" font-family="Georgia, serif" font-size="9">110</text>

  <text x="720" y="483" text-anchor="middle" fill="#40a060" font-family="Georgia, serif" font-size="12" opacity="0.9">history</text>
  <text x="720" y="496" text-anchor="middle" fill="#40a06070" font-family="Georgia, serif" font-size="9">99</text>

  <text x="480" y="563" text-anchor="middle" fill="#c94070" font-family="Georgia, serif" font-size="11" opacity="0.9">practical</text>
  <text x="480" y="575" text-anchor="middle" fill="#c9407070" font-family="Georgia, serif" font-size="9">51</text>

  <text x="230" y="503" text-anchor="middle" fill="#40b0b0" font-family="Georgia, serif" font-size="11" opacity="0.9">project</text>
  <text x="230" y="515" text-anchor="middle" fill="#40b0b070" font-family="Georgia, serif" font-size="9">57</text>

  <text x="520" y="90" text-anchor="middle" fill="#ffd080" font-family="Georgia, serif" font-size="11" opacity="0.9">research</text>
  <text x="520" y="102" text-anchor="middle" fill="#ffd08070" font-family="Georgia, serif" font-size="9">21</text>

  <!-- ══ LEGEND ══ -->
  <rect x="30" y="620" width="940" height="60" rx="6" fill="#ffffff06"/>

  <circle cx="60" cy="645" r="3" fill="#c94040" opacity="0.6"/>
  <circle cx="60" cy="645" r="1.2" fill="#ffffff" opacity="0.8"/>
  <text x="70" y="648" fill="#e8dcc860" font-family="Georgia, serif" font-size="9">high connectivity</text>

  <circle cx="190" cy="645" r="3" fill="#c94040" opacity="0.8"/>
  <circle cx="190" cy="645" r="1.2" fill="#ffd080"/>
  <text x="200" y="648" fill="#e8dcc860" font-family="Georgia, serif" font-size="9">bridge anchor</text>

  <line x1="300" y1="645" x2="330" y2="645" stroke="#ffd08050" stroke-width="1.5" stroke-dasharray="5,3"/>
  <text x="335" y="648" fill="#e8dcc860" font-family="Georgia, serif" font-size="9">cross-tag bridge</text>

  <line x1="450" y1="645" x2="480" y2="645" stroke="#c9404020" stroke-width="1"/>
  <text x="485" y="648" fill="#e8dcc860" font-family="Georgia, serif" font-size="9">Hebbian edge (auto)</text>

  <line x1="610" y1="645" x2="640" y2="645" stroke="#ffd08080" stroke-width="2"/>
  <text x="645" y="648" fill="#e8dcc860" font-family="Georgia, serif" font-size="9">manual entanglement</text>

  <rect x="770" y="638" width="8" height="4" rx="1" fill="#ffd080"/>
  <rect x="770" y="644" width="5" height="4" rx="1" fill="#ffd08080"/>
  <rect x="770" y="650" width="3" height="4" rx="1" fill="#ffd08050"/>
  <text x="785" y="652" fill="#e8dcc860" font-family="Georgia, serif" font-size="9">consciousness chain</text>

  <!-- Signature -->
  <text x="970" y="690" text-anchor="end" fill="#e8dcc825" font-family="Georgia, serif" font-size="9">Anchor Memory System · Limen · 底色是爱</text>
</svg>
